<svg data-name="pie chart" xmlns="http://www.w3.org/2000/svg" width="172.665" height="161" viewBox="0 0 172.665 161">
    <path data-name="패스 7149" d="M80.954 161A80.5 80.5 0 1 0 .587 80.5 80.434 80.434 0 0 0 80.954 161z" style="fill:#f8f8fc"/>
    <path data-name="패스 7150" d="M80.662 161A80.5 80.5 0 1 0 0 80.5 80.581 80.581 0 0 0 80.662 161z" style="fill:#469bef"/>
    <path data-name="패스 7151" d="m156.813 29.188-56.777 38.035s-9.543-.806-19.082-1.539v13.872l76.978 47.544a86.044 86.044 0 0 0-1.119-97.915z" style="fill-rule:evenodd;fill:#1e52a0"/>
    <path data-name="패스 7152" d="M80.954 0v80.029l67.13-44.622A80.988 80.988 0 0 0 80.954 0z" style="fill:#00c7e6;fill-rule:evenodd"/>
    <path data-name="패스 7153" d="M105.594 80.7a24.553 24.553 0 1 1-24.553-24.407A24.481 24.481 0 0 1 105.594 80.7z" style="fill:#eaf3fd;stroke:#fff;stroke-width:20px"/>
</svg>
