<svg xmlns="http://www.w3.org/2000/svg" width="24" height="24" viewBox="0 0 24 24">
    <path data-name="패스 7179" d="M10.5 3A1.5 1.5 0 1 0 12 4.5 1.5 1.5 0 0 0 10.5 3z" transform="translate(5.75 3.25)" style="fill:#1e52a0"/>
    <path data-name="패스 7180" d="M0 2a2 2 0 0 1 2-2h16a2 2 0 0 1 2 2v16a2.007 2.007 0 0 1-.041.4A2 2 0 0 1 18 20H2a2 2 0 0 1-2-2zm6.466 2.19L6 3.724 1.333 8.391V2A.667.667 0 0 1 2 1.333h16a.667.667 0 0 1 .667.667v11.333h-3.058L6.471 4.2z" style="fill-rule:evenodd;fill:#1e52a0" transform="translate(2 2)"/>
</svg>
