<svg xmlns="http://www.w3.org/2000/svg" width="56" height="56" viewBox="0 0 56 56">
    <path style="fill:none" d="M0 0h56v56H0z"/>
    <g data-name="그룹 26811">
        <path data-name="패스 102899" d="M25.841 0h-6a.986.986 0 0 0-1 .97v1.941a.986.986 0 0 0 1 .97V10l6-2.083V3.882a.986.986 0 0 0 1-.97V.97a.986.986 0 0 0-1-.97" transform="translate(13.159 13)" style="fill:#00c7e6"/>
        <path data-name="패스 102900" d="M0 30.021v-19.27a1.669 1.669 0 0 1 1.114-1.568l12.859-4.6a1.35 1.35 0 0 1 1.815 1.254V31.5H1.5A1.49 1.49 0 0 1 0 30.021" transform="translate(13 13)" style="fill:#fff"/>
        <path data-name="패스 102903" d="M19.841 31.5v-9a1 1 0 0 1 1-1h4a1 1 0 0 1 1 1v9h3.947V11.835a1.351 1.351 0 0 0-1.815-1.254l-12.859 4.6A1.668 1.668 0 0 0 14 16.751V31.5z" transform="translate(13 13)" style="fill:#fff"/>
        <path data-name="패스 102905" d="m0 2.671 2.011-.73" transform="translate(17.217 23.5)" style="stroke:#00c7e6;stroke-linecap:round;stroke-width:2px;fill:none"/>
        <path data-name="패스 102906" d="M5.21.779 7.355 0" transform="translate(17.217 23.5)" style="stroke:#00c7e6;stroke-linecap:round;stroke-width:2px;fill:none"/>
        <path data-name="패스 102907" d="m0 2.671 2.011-.73" transform="translate(17.217 28.321)" style="stroke:#00c7e6;stroke-linecap:round;stroke-width:2px;fill:none"/>
        <path data-name="패스 102908" d="M5.21.779 7.355 0" transform="translate(17.217 28.321)" style="stroke:#00c7e6;stroke-linecap:round;stroke-width:2px;fill:none"/>
    </g>
</svg>
