<svg xmlns="http://www.w3.org/2000/svg" width="16" height="16" viewBox="0 0 16 16">
    <path style="fill:rgba(255,255,255,.2);opacity:.001" d="M0 0h16v16H0z"/>
    <path data-name="패스 102872" d="M6.637 2.592a.4.4 0 0 1-.565-.565L7.409.624a2.619 2.619 0 0 1 3.675.283 2.619 2.619 0 0 1 .283 3.675L8.54 7.408a2.619 2.619 0 0 1-3.675-.283.4.4 0 0 1 .565-.565 1.836 1.836 0 0 0 2.544.283L10.8 4.016a1.836 1.836 0 0 0-.283-2.544 1.836 1.836 0 0 0-2.544-.283zM5.506 9.43a.4.4 0 1 1 .565.57l-1.489 1.37a2.619 2.619 0 0 1-3.675-.283 2.619 2.619 0 0 1-.282-3.679l2.827-2.827a2.619 2.619 0 0 1 3.675.283.4.4 0 0 1-.565.565 1.836 1.836 0 0 0-2.544-.283L1.191 7.973a1.836 1.836 0 0 0 .283 2.544 1.836 1.836 0 0 0 2.544.283z" transform="translate(2.004 2.006)" style="stroke:#000;stroke-linecap:round;stroke-width:.8px"/>
</svg>
