<svg data-name="Close(Medium)" xmlns="http://www.w3.org/2000/svg" width="16" height="16" viewBox="0 0 16 16">
    <path d="M15.732 5.267a.916.916 0 0 0-1.294 0l-3.151 3.152-.064.052a.407.407 0 0 1-.511-.053l-3.15-3.15a.916.916 0 0 0-1.294 0l-.082.093a.912.912 0 0 0 .081 1.2l3.154 3.152a.405.405 0 0 1 0 .574l-3.154 3.154a.914.914 0 1 0 1.295 1.291l3.15-3.152a.407.407 0 0 1 .576 0l3.151 3.153a.916.916 0 0 0 1.294 0l.082-.093a.912.912 0 0 0-.081-1.2l-3.154-3.155a.406.406 0 0 1 0-.574l3.154-3.154a.912.912 0 0 0-.002-1.29z" transform="translate(-3 -2)" style="fill-rule:evenodd;fill:#fff"/>
</svg>
