<svg xmlns="http://www.w3.org/2000/svg" width="15.999" height="16" viewBox="0 0 15.999 16">
    <path style="fill:none;opacity:.001" d="M0 0h15.999v15.999H0z"/>
    <path data-name="빼기 1" d="M10.231 16H1.615A1.609 1.609 0 0 1 0 14.4V3.733a1.609 1.609 0 0 1 1.615-1.6h.539V1.6A1.611 1.611 0 0 1 3.771 0h6.622l.138.09-.3.444.3-.444 3.23 2.133.239.158v9.885a1.61 1.61 0 0 1-1.615 1.6h-.54v.534a1.608 1.608 0 0 1-1.614 1.6zM1.615 3.2a.537.537 0 0 0-.538.534V14.4a.537.537 0 0 0 .538.534h8.617a.537.537 0 0 0 .538-.534v-.533h-7a1.611 1.611 0 0 1-1.617-1.6V3.2zM6.35 8.958a.5.5 0 0 0 0 1H9.9a.5.5 0 0 0 0-1zm0-2a.5.5 0 0 0 0 1H9.9a.5.5 0 1 0 0-1zm0-2a.5.5 0 0 0 0 1H9.9a.5.5 0 1 0 0-1z" transform="translate(1)" style="fill:#1e52a0"/>
</svg>
