<svg xmlns="http://www.w3.org/2000/svg" width="16" height="16" viewBox="0 0 16 16">
    <path data-name="패스 9708" d="M8 24a6.6 6.6 0 1 0 13.192 0H8z" transform="translate(-5.858 -16.104)" style="fill:#dc4c2c"/>
    <path data-name="패스 9709" d="M26 6v6.638h6.638A6.638 6.638 0 0 0 26 6z" transform="translate(-17.304 -4.666)" style="fill:#f7a278"/>
    <path data-name="패스 9710" d="M14.638 6A6.638 6.638 0 0 0 8 12.638h6.638z" transform="translate(-5.858 -4.666)" style="fill:#c06346"/>
    <path data-name="패스 9711" d="M10.756 21.3H4.62a.617.617 0 0 1-.62-.614v-6.072A.617.617 0 0 1 4.62 14h6.136a.617.617 0 0 1 .62.614v6.072a.617.617 0 0 1-.62.614z" transform="translate(-3.333 -9.716)" style="fill:#9b341f"/>
    <path data-name="패스 9712" d="M11.723 19.012H10V22.7h.746v-1.3h.839a1.253 1.253 0 0 0 1.253-1.253v-.021a1.115 1.115 0 0 0-1.115-1.114zm.331 1.234a.574.574 0 0 1-.574.574h-.734v-1.226h.734a.574.574 0 0 1 .574.574z" transform="translate(-7.136 -12.918)" style="fill:#fff"/>
</svg>
