<svg xmlns="http://www.w3.org/2000/svg" width="24" height="24.002" viewBox="0 0 24 24.002">
    <path style="fill:none;opacity:.001" d="M0 0h24v24H0z"/>
    <path data-name="빼기 1" d="M14957.617-1372h-12.317a2.357 2.357 0 0 1-2.306-2.4v-16a2.357 2.357 0 0 1 2.306-2.4h.774v-.8a2.358 2.358 0 0 1 2.309-2.4h9.464l.2.135-.429.665.429-.665 4.615 3.2.341.237V-1377.6a2.358 2.358 0 0 1-2.309 2.4h-.771v.8a2.357 2.357 0 0 1-2.306 2.4zm-12.313-19.2a.784.784 0 0 0-.766.8v16a.784.784 0 0 0 .766.8h12.313a.786.786 0 0 0 .771-.8v-.8h-10a2.358 2.358 0 0 1-2.309-2.4v-13.6zm6.8 8.637a.75.75 0 0 0-.747.751.748.748 0 0 0 .747.747h5a.75.75 0 0 0 .751-.747.752.752 0 0 0-.751-.751zm0-3a.75.75 0 0 0-.747.751.748.748 0 0 0 .747.747h5a.75.75 0 0 0 .751-.747.752.752 0 0 0-.751-.751zm0-3a.75.75 0 0 0-.747.751.75.75 0 0 0 .747.751h5a.752.752 0 0 0 .751-.751.752.752 0 0 0-.751-.751z" transform="translate(-14941 1396.001)" style="fill:#1e52a0"/>
</svg>
