<svg xmlns="http://www.w3.org/2000/svg" width="16" height="16" viewBox="0 0 16 16">
    <path data-name="사각형 159056" style="fill:rgba(255,0,0,.2);opacity:.001" d="M0 0h16v16H0z"/>
    <path d="M12.876 13.819a.667.667 0 1 0 .913-.972zm.913-.972-3.785-3.555-.913.972 3.785 3.556zm-6.994-2.314a3.533 3.533 0 0 1-3.461-3.6H2a4.866 4.866 0 0 0 4.8 4.933zm3.462-3.6a3.533 3.533 0 0 1-3.462 3.6v1.334a4.866 4.866 0 0 0 4.8-4.933zm-3.462-3.6a3.533 3.533 0 0 1 3.462 3.6h1.333A4.866 4.866 0 0 0 6.795 2zm0-1.333a4.866 4.866 0 0 0-4.8 4.933h1.339a3.533 3.533 0 0 1 3.462-3.6z"/>
</svg>
