<svg xmlns="http://www.w3.org/2000/svg" width="16" height="16" viewBox="0 0 16 16">
    <path d="M16.7 5.294a1.007 1.007 0 0 0-1.423 0l-3.461 3.467-.071.058a.448.448 0 0 1-.562-.058L7.718 5.295a1.007 1.007 0 0 0-1.423 0l-.09.1a1 1 0 0 0 .089 1.318l3.469 3.47a.446.446 0 0 1 0 .631l-3.469 3.47a1.005 1.005 0 1 0 1.424 1.42l3.465-3.468a.448.448 0 0 1 .633 0l3.466 3.468a1.007 1.007 0 0 0 1.423 0l.09-.1a1 1 0 0 0-.089-1.318l-3.469-3.47a.446.446 0 0 1 0-.631l3.469-3.47a1 1 0 0 0-.006-1.421z" transform="rotate(45 12.5 5.136)" style="fill:#668dd5;fill-rule:evenodd"/>
</svg>
