<svg xmlns="http://www.w3.org/2000/svg" width="56" height="56" viewBox="0 0 56 56">
    <path style="fill:none" d="M0 0h56v56H0z"/>
    <g data-name="그룹 26811">
        <g data-name="그룹 26810">
            <path data-name="패스 102893" d="M120.964 226.081a1.255 1.255 0 0 1-.733-.236.586.586 0 0 1-.064-.056h0a1.128 1.128 0 0 1-.089-.08 1.253 1.253 0 0 1-.1-.107h0l-.017-.02v-.008l-.018-.021-.023-.032-.049-.081-.015-.028-.011-.032-.011-.011-.011-.02v-.012l-.006-.012v-.014l-.019-.043v-.035l-.011-.031a1.026 1.026 0 0 1-.023-.079.328.328 0 0 1-.011-.049v-.014l-.01-.049c0-.03-.008-.063-.011-.1a1.329 1.329 0 0 1 0-.157c0-.039.006-.082.012-.123 0-.019.006-.037.009-.055a1.257 1.257 0 0 1 .096-.295l.027-.052a1.33 1.33 0 0 1 .064-.108 1.131 1.131 0 0 1 .073-.1c.025-.03.054-.063.086-.095l1.051-1.049 2.606-2.606a.519.519 0 0 1 .736 0l1.045 1.044a.528.528 0 0 1 0 .736l-2.607 2.607-1.051 1.049a1.25 1.25 0 0 1-.89.369" transform="translate(-100.775 -188.652)" style="stroke:#1e52a0;fill:#fff;stroke-linecap:round;stroke-linejoin:round"/>
            <path data-name="패스 102894" d="M158.334 263.457a1.267 1.267 0 0 1-.732-.235l-.015-.015-.01-.006a.491.491 0 0 1-.04-.036l-.169-.169a.5.5 0 0 1-.036-.04l-.011-.016-.006-.006a1.254 1.254 0 0 1 .13-1.626l3.655-3.655a.523.523 0 0 1 .737 0l1.043 1.043a.523.523 0 0 1 0 .738l-2.605 2.605-1.051 1.049a1.25 1.25 0 0 1-.89.369" transform="translate(-135.539 -223.423)" style="stroke:#1e52a0;fill:#fff;stroke-linecap:round;stroke-linejoin:round"/>
            <path data-name="패스 102895" d="M195.663 300.813a1.241 1.241 0 0 1-.737-.239l-.025-.025h-.009l-.029-.027-.164-.164a.44.44 0 0 1-.034-.038l-.013-.017-.018-.017a1.25 1.25 0 0 1 .139-1.618l3.656-3.656a.521.521 0 0 1 .368-.152.515.515 0 0 1 .366.152l1.045 1.045a.52.52 0 0 1 0 .736l-3.655 3.655a1.25 1.25 0 0 1-.89.369" transform="translate(-170.263 -258.175)" style="stroke:#1e52a0;fill:#fff;stroke-linecap:round;stroke-linejoin:round"/>
            <path data-name="패스 102896" d="M233.077 338.181h-.107a1.263 1.263 0 0 1-.774-.364l-.093-.093a.4.4 0 0 1-.051-.058 1.254 1.254 0 0 1 .128-1.628l1.051-1.049 2.6-2.6a.516.516 0 0 1 .727-.01l.01.009.015.011.514.516.588.588a.406.406 0 0 1 .03.56l-1.035 1.033-.009.012a1.092 1.092 0 0 1-.1.108 1.139 1.139 0 0 1-.11.1l-.011.009-2.5 2.5a1.245 1.245 0 0 1-.773.364l-.088.005h-.023" transform="translate(-205.065 -292.937)" style="stroke:#1e52a0;fill:#fff;stroke-linecap:round;stroke-linejoin:round"/>
            <path data-name="패스 102897" d="M23.1 23.814a.474.474 0 0 1-.25-.139c-.2-.171-.406-.359-.6-.54l-.3-.28a2.256 2.256 0 0 0-1.4-.726h-.012a2.835 2.835 0 0 0-1.062-1.754 2.444 2.444 0 0 0-1.54-.846 2.314 2.314 0 0 0-.789-1.476 2.975 2.975 0 0 0-1.812-1.128 3.226 3.226 0 0 0-1.516-2.095 2.407 2.407 0 0 0-1.341-.581 1.161 1.161 0 0 0-.366.058 1.984 1.984 0 0 0-.746.537q-1.735 1.744-3.473 3.483a1.257 1.257 0 0 1-1.655.109l-3.713-3.709A8.627 8.627 0 0 1 8.625 0a8.566 8.566 0 0 1 6.1 2.527l1.981 1.981-3.5 3.5-.064.066-.016.019-.2.268a1.513 1.513 0 0 0-.209.363 2.313 2.313 0 0 0 .5 2.5 2.278 2.278 0 0 0 3.223 0l.892-.888 7.244 7.247.522.52 1.051 1.051a1.259 1.259 0 0 1 .109 1.653l-.235.235a1.267 1.267 0 0 1-.767.259 1.248 1.248 0 0 1-.888-.368l-6.948-6.948a.583.583 0 0 0-.825.825l6.947 6.949a1.257 1.257 0 0 1 .111 1.653l-.237.237a.633.633 0 0 1-.307.167" transform="translate(10.586 16.128)" style="stroke:#1e52a0;fill:#fff;stroke-linecap:round;stroke-linejoin:round"/>
            <path data-name="패스 102898" d="M208.859 18.7a1.25 1.25 0 0 1-.89-.369l-9.539-9.539-.673.674-1.043 1.042-.048.045a1.4 1.4 0 0 1-.1.08 1.029 1.029 0 0 1-.1.067 1.16 1.16 0 0 1-.112.06 1.233 1.233 0 0 1-.172.066.984.984 0 0 1-.116.028 1.292 1.292 0 0 1-.482 0 1.33 1.33 0 0 1-.117-.029 1.228 1.228 0 0 1-.171-.065 1.653 1.653 0 0 1-.11-.058 1.029 1.029 0 0 1-.1-.068 1.321 1.321 0 0 1-.1-.082l-.045-.043a1.259 1.259 0 0 1-.045-1.733l.047-.048 3.084-3.085.561-.56 2.55-2.55a8.627 8.627 0 0 1 12.2 12.2l-3.7 3.7a1.262 1.262 0 0 1-.769.263" transform="translate(-170.418 16.123)" style="stroke:#1e52a0;fill:#fff;stroke-linecap:round;stroke-linejoin:round"/>
        </g>
        <g data-name="사각형 161867" transform="rotate(135 7.28 12.325)" style="fill:#25c7e6;stroke-width:2px;stroke:#1e52a0">
            <rect width="16" height="4" rx="2" style="stroke:none"/>
            <rect x="-1" y="-1" width="18" height="6" rx="3" style="fill:none"/>
        </g>
        <g data-name="사각형 162052" transform="rotate(45 2.792 52.342)" style="fill:#25c7e6;stroke-width:2px;stroke:#1e52a0">
            <rect width="16" height="4" rx="2" style="stroke:none"/>
            <rect x="-1" y="-1" width="18" height="6" rx="3" style="fill:none"/>
        </g>
    </g>
</svg>
