<svg xmlns="http://www.w3.org/2000/svg" width="56" height="56" viewBox="0 0 56 56">
    <path style="fill:none" d="M0 0h56v56H0z"/>
    <g data-name="그룹 26814">
        <path data-name="합치기 17" d="M1.106 6.035a.944.944 0 0 1-.875-1 .944.944 0 0 1 .875-1h.625V.317a52.357 52.357 0 0 1 4-.317v4.036h.625a.944.944 0 0 1 .875 1 .944.944 0 0 1-.875 1z" transform="translate(37.769 24.69)" style="fill:#00c7e6;stroke:transparent;stroke-miterlimit:10"/>
        <path data-name="합치기 16" d="M1.737 8.484a.944.944 0 0 1-.875-1 .944.944 0 0 1 .875-1h.625V1.549a15.228 15.228 0 0 1 4-1.55v6.485h.625a.945.945 0 0 1 .875 1 .944.944 0 0 1-.875 1z" transform="translate(28.138 25.749)" style="fill:#00c7e6;stroke:transparent;stroke-miterlimit:10"/>
        <path data-name="패스 102913" d="M4.1 30h15.95a.522.522 0 0 0 .327-.888C16.144 24.655 4.186 9.47 37.055 8.949A1 1 0 0 0 38 7.915v-6.64a1.013 1.013 0 0 0-.9-1.039C-8.585-2.641-.688 21.612 2.835 29.161A1.4 1.4 0 0 0 4.1 30m2.7-14.046a11.964 11.964 0 0 1 .543-2.129.924.924 0 0 1 1.231-.588 1.067 1.067 0 0 1 .539 1.342 9.6 9.6 0 0 0-.441 1.731.978.978 0 0 1-.936.858 1 1 0 0 1-.164-.015 1.034 1.034 0 0 1-.772-1.2m2.163 9.04a.865.865 0 0 1-.323.062.958.958 0 0 1-.893-.684 25.339 25.339 0 0 1-.576-2.007 1.048 1.048 0 0 1 .676-1.264.946.946 0 0 1 1.16.739c.143.591.319 1.207.525 1.828a1.064 1.064 0 0 1-.571 1.327m4.654-15.638a13.6 13.6 0 0 0-1.442 1.021.9.9 0 0 1-.567.205.923.923 0 0 1-.762-.418 1.1 1.1 0 0 1 .194-1.45 15.571 15.571 0 0 1 1.642-1.162.909.909 0 0 1 1.295.392 1.088 1.088 0 0 1-.359 1.412m6.638-2.6c-.606.146-1.184.3-1.737.471a.878.878 0 0 1-.256.038.968.968 0 0 1-.915-.76 1.051 1.051 0 0 1 .662-1.276q.876-.264 1.834-.5a.952.952 0 0 1 1.133.789 1.041 1.041 0 0 1-.723 1.236M27.4 5.65q-.928.079-1.807.18a.836.836 0 0 1-.1.006.986.986 0 0 1-.943-.928 1.016 1.016 0 0 1 .85-1.138q.9-.106 1.859-.187a.986.986 0 0 1 1.021.953 1.012 1.012 0 0 1-.88 1.114m5.432-2.332c.459-.006.925-.009 1.4-.009h.468a1 1 0 0 1 .944 1.043 1 1 0 0 1-.95 1.03h-.456q-.7 0-1.373.009h-.011a.994.994 0 0 1-.95-1.023 1 1 0 0 1 .938-1.05" transform="translate(9 13)" style="fill:#fff"/>
    </g>
</svg>
